# xmcd
#
# Track frame offsets:
#	150
#	16496
#	45674
#	60380
#	71662
#	91080
#	111037
#	127583
#	154735
#	174024
#	195453
#	207775
#	223636
#	235919
#
# Disc length: 3440 seconds
#
# Revision: 1
# Processed by: cddbd v1.5.2PL0 Copyright (c) Steve Scherf et al.
# Submitted via: audiograbber 1.83.01
#
DISCID=ab0d6e0e
DTITLE=Naito,Shoji - New cool old school
DYEAR=2016
DGENRE=Blues
TTITLE0=I got to go
TTITLE1=Honey bee
TTITLE2=Big boss man
TTITLE3=I'll change my style
TTITLE4=Congo Mombo
TTITLE5=I got myself a workin' man
TTITLE6=Bopp'n and jumpin the blues
TTITLE7=Sweet home Chicago
TTITLE8=Last night
TTITLE9=I'm ready
TTITLE10=Walking by myself
TTITLE11=Sad night owl
TTITLE12=Same old s'cool
TTITLE13=Money,marbles and chalk
EXTD=
EXTT0=
EXTT1=
EXTT2=
EXTT3=
EXTT4=
EXTT5=
EXTT6=
EXTT7=
EXTT8=
EXTT9=
EXTT10=
EXTT11=
EXTT12=
EXTT13=
PLAYORDER=
